<svg version="1.1" id="Layer_1" xmlns="http://www.w3.org/2000/svg" xmlns:xlink="http://www.w3.org/1999/xlink" x="0px" y="0px"
	 width="100%" viewBox="0 0 512 512" enable-background="new 0 0 512 512" xml:space="preserve">
<path fill="#000000" opacity="1.000000" stroke="none" 
	d="
M513.000000,205.000000 
	C513.000000,307.974976 513.000000,410.449951 513.000000,512.962463 
	C342.400024,512.962463 171.800018,512.962463 1.100012,512.962463 
	C1.100012,342.441711 1.100012,171.883362 1.100012,1.162497 
	C171.666534,1.162497 342.333252,1.162497 513.000000,1.162497 
	C513.000000,68.866608 513.000000,136.683304 513.000000,205.000000 
M302.235840,240.282898 
	C344.150543,198.358429 386.030731,156.399246 428.066101,114.596115 
	C430.579193,112.096878 434.134827,110.150375 437.555756,109.172020 
	C443.144104,107.573822 449.043365,107.095078 454.770233,105.939743 
	C460.599030,104.763863 466.429688,102.915611 469.667023,97.601532 
	C481.031494,78.946922 492.151093,60.141140 503.178131,41.284245 
	C506.299957,35.945713 505.689667,32.411221 501.474823,28.010712 
	C496.408417,22.721098 491.330078,17.414955 485.900330,12.510754 
	C482.044708,9.028347 477.765442,7.579546 472.581818,10.743763 
	C455.467560,21.190779 438.240479,31.461660 420.864960,41.467125 
	C415.174042,44.744148 410.940094,48.983711 409.130005,55.141850 
	C407.628082,60.251526 407.160400,65.655701 405.954895,70.864693 
	C404.767395,75.995682 404.410675,81.246346 400.148590,85.483696 
	C358.813416,126.578896 317.649780,167.846680 276.421570,209.049591 
	C275.394531,210.076019 274.188141,210.923004 272.794952,211.248611 
	C247.111496,185.579529 221.408966,159.929398 195.810120,134.176208 
	C194.717270,133.076752 193.783951,130.825516 194.126297,129.445770 
	C197.701111,115.037727 198.868088,100.691925 196.113327,85.890640 
	C191.189102,59.433025 177.221878,38.785027 155.268326,24.242685 
	C136.282028,11.665893 114.822823,6.473717 91.738029,9.890656 
	C87.628220,10.498975 84.685204,11.685115 82.961967,15.615126 
	C80.992294,20.107145 82.787529,23.313805 85.891861,26.403963 
	C101.122154,41.564724 116.373558,56.705837 131.447815,72.020905 
	C136.272308,76.922470 138.638443,82.761276 135.661835,89.737930 
	C131.997925,98.325592 128.608658,107.036545 124.719826,115.519623 
	C122.690445,119.946487 119.280975,123.236664 114.503571,125.158279 
	C107.189117,128.100357 100.080292,131.549133 92.814781,134.618546 
	C83.394569,138.598206 77.897400,137.387039 70.480118,129.973007 
	C55.517147,115.016556 40.550797,100.063477 25.595446,85.099403 
	C22.674942,82.177200 19.384476,81.346527 15.494086,82.990654 
	C11.965128,84.482048 10.518776,87.137032 9.927149,90.875114 
	C8.289020,101.225327 8.931708,111.386261 10.938332,121.636963 
	C17.017925,152.694107 34.889614,175.042801 62.724384,188.703583 
	C83.359566,198.830963 105.603668,200.599304 128.185471,194.557632 
	C130.072281,194.052811 133.123581,194.932587 134.581955,196.295029 
	C141.880646,203.113647 148.812881,210.323547 155.902939,217.366684 
	C170.896011,232.260559 185.907089,247.136322 200.701019,262.764038 
	C200.313309,264.498108 200.065567,266.277954 199.516083,267.959137 
	C194.470581,283.396271 176.502914,293.385925 159.394073,285.132599 
	C151.732529,281.436646 148.252228,282.274872 142.239349,288.283569 
	C118.445473,312.061005 94.559921,335.747192 70.852737,359.610626 
	C53.042034,377.538788 35.162300,395.413818 17.857147,413.823700 
	C4.558846,427.970917 6.830103,452.069763 19.035997,464.494873 
	C28.957664,474.594727 39.104671,484.473297 49.024033,494.575378 
	C55.866119,501.543457 64.493202,504.255341 73.784706,504.920868 
	C86.800865,505.853180 97.391495,500.075806 106.274025,491.227997 
	C146.505096,451.154053 186.595093,410.938477 226.722656,370.760681 
	C231.562027,365.915253 232.183914,361.798798 229.274200,355.645172 
	C224.961777,346.524963 224.228760,337.269470 229.378876,328.309967 
	C234.352859,319.656830 241.972137,314.493927 252.208298,313.703522 
	C288.122284,349.620819 324.051971,385.522430 359.928497,421.477112 
	C363.980225,425.537659 367.960602,428.623138 367.550659,436.346924 
	C367.074646,445.314636 370.178467,454.802460 373.216492,463.547577 
	C377.543701,476.003479 386.147400,485.785706 397.115845,492.955872 
	C412.115204,502.761108 428.486267,506.864349 446.646179,504.134247
	C464.887665,501.391876 479.628296,492.626190 490.577911,478.526917 
	C502.400360,463.303741 507.163483,445.610565 504.110474,426.011902 
	C501.866638,411.607422 496.058136,399.096191 486.085602,388.711304 
	C472.629150,374.698517 456.169983,367.095398 436.444885,368.108765 
	C431.308380,368.372681 427.952576,366.613647 424.419281,363.055695 
	C388.038452,326.420471 351.483490,289.958130 314.961670,253.463013 
	C310.735535,249.239960 306.416107,245.110229 302.235840,240.282898 
z"/>
<path fill="#2BA1DC" opacity="1.000000" stroke="none"
	d="
M251.974503,313.085449 
	C241.972137,314.493927 234.352859,319.656830 229.378876,328.309967 
	C224.228760,337.269470 224.961777,346.524963 229.274200,355.645172 
	C232.183914,361.798798 231.562027,365.915253 226.722656,370.760681 
	C186.595093,410.938477 146.505096,451.154053 106.274025,491.227997 
	C97.391495,500.075806 86.800865,505.853180 73.784706,504.920868 
	C64.493202,504.255341 55.866119,501.543457 49.024033,494.575378 
	C39.104671,484.473297 28.957664,474.594727 19.035997,464.494873 
	C6.830103,452.069763 4.558846,427.970917 17.857147,413.823700 
	C35.162300,395.413818 53.042034,377.538788 70.852737,359.610626 
	C94.559921,335.747192 118.445473,312.061005 142.239349,288.283569 
	C148.252228,282.274872 151.732529,281.436646 159.394073,285.132599 
	C176.502914,293.385925 194.470581,283.396271 199.516083,267.959137 
	C200.065567,266.277954 200.313309,264.498108 200.880524,261.946747 
	C199.916321,255.871582 199.392929,250.371246 197.458389,245.422531 
	C195.433823,240.243515 195.837540,236.146286 199.577057,232.245956 
	C202.782898,228.902206 206.019516,225.587982 209.520630,222.073212 
	C217.003372,214.740906 222.082520,213.680283 227.348648,218.904892 
	C250.056351,241.433640 272.657990,264.069855 295.202911,286.761688 
	C299.338165,290.923889 299.241180,296.148163 295.466309,300.727814 
	C294.304962,302.136780 292.994568,303.422913 291.472900,304.944794 
	C288.348846,307.930115 285.522491,310.754669 282.655731,313.537598 
	C277.429474,318.611023 274.588104,318.602936 267.844635,316.165558 
	C262.837616,314.355804 257.284424,314.057190 251.974503,313.085449 
M48.900707,425.691925 
	C46.024399,430.896606 46.410748,435.501770 49.957527,438.288391 
	C53.612278,441.159851 58.002449,440.414246 62.338276,436.184967 
	C62.576599,435.952545 62.810318,435.715393 63.045723,435.479980 
	C96.119476,402.407227 129.194000,369.335205 162.263046,336.257690 
	C163.320908,335.199524 164.915787,334.231537 165.228119,332.966644 
	C165.903046,330.233215 166.948944,326.828583 165.890244,324.645691 
	C164.843567,322.487518 161.368759,320.258453 159.004547,320.306305 
	C156.101700,320.365051 152.605515,322.107666 150.465622,324.230865 
	C116.672462,357.760101 83.056183,391.467621 48.900707,425.691925 
M122.489113,406.989075 
	C112.601196,416.877045 102.712067,426.763794 92.825851,436.653473 
	C87.412079,442.069092 81.919281,447.409149 76.621895,452.936432 
	C73.166878,456.541351 73.137291,461.405548 76.201729,464.606445 
	C79.111786,467.646088 84.488754,467.965424 88.099625,465.231873 
	C89.153961,464.433716 90.058594,463.431702 90.999565,462.490875 
	C123.844437,429.652832 156.687576,396.813110 189.518280,363.960907 
	C190.689407,362.789032 191.924927,361.610535 192.797867,360.225525 
	C195.113708,356.551117 194.301117,351.423096 191.174561,348.844849 
	C188.003815,346.230103 183.675278,346.387024 180.229568,349.316742 
	C179.091354,350.284485 178.078964,351.401337 177.019577,352.460571 
	C159.008423,370.469086 140.998917,388.479248 122.489113,406.989075 
z"/>
<path fill="#C0DADC" opacity="1.000000" stroke="none" 
	d="
M209.242523,222.260696 
	C206.019516,225.587982 202.782898,228.902206 199.577057,232.245956 
	C195.837540,236.146286 195.433823,240.243515 197.458389,245.422531 
	C199.392929,250.371246 199.916321,255.871582 200.985397,261.574463 
	C185.907089,247.136322 170.896011,232.260559 155.902939,217.366684 
	C148.812881,210.323547 141.880646,203.113647 134.581955,196.295029 
	C133.123581,194.932587 130.072281,194.052811 128.185471,194.557632 
	C105.603668,200.599304 83.359566,198.830963 62.724384,188.703583 
	C34.889614,175.042801 17.017925,152.694107 10.938332,121.636963 
	C8.931708,111.386261 8.289020,101.225327 9.927149,90.875114 
	C10.518776,87.137032 11.965128,84.482048 15.494086,82.990654 
	C19.384476,81.346527 22.674942,82.177200 25.595446,85.099403 
	C40.550797,100.063477 55.517147,115.016556 70.480118,129.973007 
	C77.897400,137.387039 83.394569,138.598206 92.814781,134.618546 
	C100.080292,131.549133 107.189117,128.100357 114.503571,125.158279 
	C119.280975,123.236664 122.690445,119.946487 124.719826,115.519623 
	C128.608658,107.036545 131.997925,98.325592 135.661835,89.737930 
	C138.638443,82.761276 136.272308,76.922470 131.447815,72.020905 
	C116.373558,56.705837 101.122154,41.564724 85.891861,26.403963 
	C82.787529,23.313805 80.992294,20.107145 82.961967,15.615126 
	C84.685204,11.685115 87.628220,10.498975 91.738029,9.890656 
	C114.822823,6.473717 136.282028,11.665893 155.268326,24.242685 
	C177.221878,38.785027 191.189102,59.433025 196.113327,85.890640 
	C198.868088,100.691925 197.701111,115.037727 194.126297,129.445770 
	C193.783951,130.825516 194.717270,133.076752 195.810120,134.176208 
	C221.408966,159.929398 247.111496,185.579529 272.877441,211.902542 
	C265.281830,220.698364 257.603699,228.840240 248.992737,237.971283 
	C247.292450,235.631485 246.387527,233.974686 245.109039,232.689499 
	C229.621231,217.120667 214.095276,201.589600 198.528824,186.099380 
	C196.537064,184.117386 194.343933,182.310318 192.094986,180.620682 
	C188.752380,178.109421 183.992447,178.528503 181.220978,181.390518 
	C178.435730,184.266739 178.172211,188.847382 180.777435,192.277115 
	C182.479126,194.517349 184.313522,196.678162 186.267502,198.701645 
	C193.887070,206.592102 201.578094,214.413559 209.242523,222.260696 
z"/>
<path fill="#C0DADC" opacity="1.000000" stroke="none"
	d="
M252.091400,313.394470 
	C257.284424,314.057190 262.837616,314.355804 267.844635,316.165558 
	C274.588104,318.602936 277.429474,318.611023 282.655731,313.537598 
	C285.522491,310.754669 288.348846,307.930115 291.781616,305.129486 
	C313.037994,325.705353 333.703979,346.278320 354.379700,366.841492 
	C355.676941,368.131653 356.888275,369.612335 358.420197,370.541809 
	C362.200714,372.835632 366.085846,372.789429 369.527008,369.829132 
	C372.551514,367.227264 372.985168,361.856262 370.524506,358.355316 
	C369.482147,356.872284 368.087646,355.626373 366.793854,354.332001 
	C338.282501,325.807098 309.761230,297.292114 281.249390,268.767731 
	C279.893005,267.410767 278.605927,265.984558 277.120178,264.414764 
	C284.722992,256.806122 291.874603,249.602112 299.106659,242.479828 
	C299.877014,241.721161 301.117554,241.439941 302.139954,240.937225 
	C306.416107,245.110229 310.735535,249.239960 314.961670,253.463013 
	C351.483490,289.958130 388.038452,326.420471 424.419281,363.055695 
	C427.952576,366.613647 431.308380,368.372681 436.444885,368.108765 
	C456.169983,367.095398 472.629150,374.698517 486.085602,388.711304 
	C496.058136,399.096191 501.866638,411.607422 504.110474,426.011902 
	C507.163483,445.610565 502.400360,463.303741 490.577911,478.526917 
	C479.628296,492.626190 464.887665,501.391876 446.646179,504.134247 
	C428.486267,506.864349 412.115204,502.761108 397.115845,492.955872 
	C386.147400,485.785706 377.543701,476.003479 373.216492,463.547577 
	C370.178467,454.802460 367.074646,445.314636 367.550659,436.346924 
	C367.960602,428.623138 363.980225,425.537659 359.928497,421.477112 
	C324.051971,385.522430 288.122284,349.620819 252.091400,313.394470 
M467.967438,424.883698 
	C464.268188,416.013336 458.314697,408.876770 449.446960,405.309174 
	C426.023529,395.885681 402.609131,413.573730 402.756500,436.864563 
	C402.885010,457.165009 424.021759,474.236572 443.766418,468.975128 
	C463.553040,463.702545 474.298706,443.255798 467.967438,424.883698 
z"/>
<path fill="#AAC7C8" opacity="1.000000" stroke="none"
	d="
M302.187897,240.610062 
	C301.117554,241.439941 299.877014,241.721161 299.106659,242.479828 
	C291.874603,249.602112 284.722992,256.806122 277.120178,264.414764 
	C278.605927,265.984558 279.893005,267.410767 281.249390,268.767731 
	C309.761230,297.292114 338.282501,325.807098 366.793854,354.332001 
	C368.087646,355.626373 369.482147,356.872284 370.524506,358.355316 
	C372.985168,361.856262 372.551514,367.227264 369.527008,369.829132 
	C366.085846,372.789429 362.200714,372.835632 358.420197,370.541809 
	C356.888275,369.612335 355.676941,368.131653 354.379700,366.841492 
	C333.703979,346.278320 313.037994,325.705353 292.061096,304.949951 
	C292.994568,303.422913 294.304962,302.136780 295.466309,300.727814 
	C299.241180,296.148163 299.338165,290.923889 295.202911,286.761688 
	C272.657990,264.069855 250.056351,241.433640 227.348648,218.904892 
	C222.082520,213.680283 217.003372,214.740906 209.520630,222.073212 
	C201.578094,214.413559 193.887070,206.592102 186.267502,198.701645 
	C184.313522,196.678162 182.479126,194.517349 180.777435,192.277115 
	C178.172211,188.847382 178.435730,184.266739 181.220978,181.390518 
	C183.992447,178.528503 188.752380,178.109421 192.094986,180.620682 
	C194.343933,182.310318 196.537064,184.117386 198.528824,186.099380 
	C214.095276,201.589600 229.621231,217.120667 245.109039,232.689499 
	C246.387527,233.974686 247.292450,235.631485 248.992737,237.971283 
	C257.603699,228.840240 265.281830,220.698364 273.012695,212.205078 
	C274.188141,210.923004 275.394531,210.076019 276.421570,209.049591 
	C317.649780,167.846680 358.813416,126.578896 400.148590,85.483696 
	C404.410675,81.246346 404.767395,75.995682 405.954895,70.864693 
	C407.160400,65.655701 407.628082,60.251526 409.130005,55.141850 
	C410.940094,48.983711 415.174042,44.744148 420.864960,41.467125 
	C438.240479,31.461660 455.467560,21.190779 472.581818,10.743763 
	C477.765442,7.579546 482.044708,9.028347 485.900330,12.510754 
	C491.330078,17.414955 496.408417,22.721098 501.474823,28.010712 
	C505.689667,32.411221 506.299957,35.945713 503.178131,41.284245 
	C492.151093,60.141140 481.031494,78.946922 469.667023,97.601532 
	C466.429688,102.915611 460.599030,104.763863 454.770233,105.939743 
	C449.043365,107.095078 443.144104,107.573822 437.555756,109.172020 
	C434.134827,110.150375 430.579193,112.096878 428.066101,114.596115 
	C386.030731,156.399246 344.150543,198.358429 302.187897,240.610062 
z"/>
<path fill="#30649D" opacity="1.000000" stroke="none" 
	d="
M49.150024,425.413086 
	C83.056183,391.467621 116.672462,357.760101 150.465622,324.230865 
	C152.605515,322.107666 156.101700,320.365051 159.004547,320.306305 
	C161.368759,320.258453 164.843567,322.487518 165.890244,324.645691 
	C166.948944,326.828583 165.903046,330.233215 165.228119,332.966644 
	C164.915787,334.231537 163.320908,335.199524 162.263046,336.257690 
	C129.194000,369.335205 96.119476,402.407227 63.045723,435.479980 
	C62.810318,435.715393 62.576599,435.952545 62.338276,436.184967 
	C58.002449,440.414246 53.612278,441.159851 49.957527,438.288391 
	C46.410748,435.501770 46.024399,430.896606 49.150024,425.413086 
z"/>
<path fill="#30649D" opacity="1.000000" stroke="none" 
	d="
M122.739082,406.739075 
	C140.998917,388.479248 159.008423,370.469086 177.019577,352.460571 
	C178.078964,351.401337 179.091354,350.284485 180.229568,349.316742 
	C183.675278,346.387024 188.003815,346.230103 191.174561,348.844849 
	C194.301117,351.423096 195.113708,356.551117 192.797867,360.225525 
	C191.924927,361.610535 190.689407,362.789032 189.518280,363.960907 
	C156.687576,396.813110 123.844437,429.652832 90.999565,462.490875 
	C90.058594,463.431702 89.153961,464.433716 88.099625,465.231873 
	C84.488754,467.965424 79.111786,467.646088 76.201729,464.606445 
	C73.137291,461.405548 73.166878,456.541351 76.621895,452.936432 
	C81.919281,447.409149 87.412079,442.069092 92.825851,436.653473 
	C102.712067,426.763794 112.601196,416.877045 122.739082,406.739075 
z"/>
<path fill="#000000" opacity="1.000000" stroke="none" 
	d="
M467.986328,425.293884 
	C474.298706,443.255798 463.553040,463.702545 443.766418,468.975128 
	C424.021759,474.236572 402.885010,457.165009 402.756500,436.864563 
	C402.609131,413.573730 426.023529,395.885681 449.446960,405.309174 
	C458.314697,408.876770 464.268188,416.013336 467.986328,425.293884 
z"/>
</svg>