<svg version="1.1" id="Layer_1" xmlns="http://www.w3.org/2000/svg" xmlns:xlink="http://www.w3.org/1999/xlink" x="0px" y="0px"
	 width="100%" viewBox="0 0 512 512" enable-background="new 0 0 512 512" xml:space="preserve">
<path fill="#E4ECF2" opacity="1.000000" stroke="none"
	d="
M137.000000,1.000000 
	C139.700623,1.000000 142.401260,1.000000 145.247162,1.332573 
	C145.729935,2.029084 146.007706,2.616766 146.413406,2.725036 
	C174.180252,10.135015 197.926315,23.815208 216.698074,46.051140 
	C233.823029,66.336403 244.703537,89.612099 250.823700,115.089775 
	C254.253769,129.368790 255.896072,144.077255 258.348236,158.617950 
	C259.983826,157.951385 262.464294,156.940491 264.926544,156.280350 
	C264.158875,157.699509 263.647675,159.218216 262.620544,159.761581 
	C256.919525,162.777298 256.915558,167.779129 256.921936,173.322357 
	C257.030457,267.455536 256.999298,361.588867 256.998932,455.722168 
	C256.998932,457.410004 256.998901,459.097839 256.998901,460.785675 
	C253.964615,446.107697 250.973923,431.551483 247.114914,417.229218 
	C241.148560,395.085876 230.371552,375.283630 215.371597,357.991882 
	C196.263763,335.964600 172.092392,321.983978 143.805786,315.247650 
	C139.182449,314.146606 137.871445,312.345245 137.880569,307.611481 
	C138.043381,223.141724 138.007477,138.671585 137.955292,54.201550 
	C137.953796,51.764324 137.307297,49.327503 136.979187,46.429001 
	C136.997894,30.978340 136.998947,15.989170 137.000000,1.000000 
z"/>
<path fill="#000000" opacity="1.000000" stroke="none" 
	d="
M264.944794,155.929596 
	C262.464294,156.940491 259.983826,157.951385 258.348236,158.617950 
	C255.896072,144.077255 254.253769,129.368790 250.823700,115.089775 
	C244.703537,89.612099 233.823029,66.336403 216.698074,46.051140 
	C197.926315,23.815208 174.180252,10.135015 146.413406,2.725036 
	C146.007706,2.616766 145.729935,2.029084 145.696228,1.332573 
	C268.233978,1.000000 390.467926,1.000000 513.000000,1.000000 
	C513.000000,58.020550 513.000000,115.041618 512.702515,172.823334 
	C508.762543,170.175598 504.579498,168.663620 499.472961,168.915604 
	C493.022797,169.233902 486.542999,168.951538 480.041016,168.481964 
	C480.003876,166.040512 480.213562,164.013596 479.920898,162.061981 
	C479.742310,160.870941 479.044678,159.104584 478.147491,158.775146 
	C468.853973,155.362656 459.472290,152.190231 449.932251,148.563919 
	C449.499634,146.605743 449.040314,145.035675 449.033234,143.463547 
	C448.974854,130.468765 449.000183,117.473633 449.000183,104.478600 
	C449.000183,100.376053 449.000214,96.273506 449.000214,91.676773 
	C438.754639,92.479019 429.103668,93.107658 419.480286,94.025368 
	C410.556366,94.876373 401.454926,95.171722 392.798523,97.244186 
	C375.962128,101.275055 358.889038,105.115211 342.832428,111.385956 
	C326.028442,117.948563 310.007812,126.745605 294.214417,135.583847 
	C284.267426,141.150345 275.366821,148.586639 265.733643,155.129425 
	C265.287323,155.367355 265.104156,155.660034 264.947876,155.968414 
	C264.974731,155.984131 264.944794,155.929596 264.944794,155.929596 
z"/>
<path fill="#2BA1DC" opacity="1.000000" stroke="none"
	d="
M465.000000,513.000000 
	C401.979095,513.000000 338.958221,513.000000 275.465637,512.636169 
	C269.216461,505.276001 259.104614,501.777527 251.062836,504.552521 
	C246.359924,506.175385 241.029144,507.361115 239.000000,513.000000 
	C159.726746,513.000000 80.453499,513.000000 1.000000,513.000000 
	C1.000000,399.979156 1.000000,286.958252 1.296396,173.763184 
	C5.049926,169.732635 9.426700,168.742569 14.457199,168.934830 
	C20.933109,169.182358 27.427006,168.959381 34.187115,169.256409 
	C34.591331,171.387665 34.851604,173.203018 34.831600,175.015274 
	C34.646038,191.825073 34.237865,208.634171 34.222374,225.443787 
	C34.153278,300.420624 34.190250,375.397522 34.202957,450.374420 
	C34.203323,452.534851 34.360760,454.695251 34.303078,457.321472 
	C34.161201,465.378540 34.161201,472.969788 34.161201,480.998779 
	C36.908890,480.998779 39.043850,480.998749 41.178806,480.998749 
	C182.632141,480.998749 324.085449,480.998169 465.538788,481.004272 
	C467.702911,481.004364 469.867004,481.087189 472.020691,481.591675 
	C472.006409,487.490417 471.686829,492.951874 472.080658,498.361389 
	C472.547241,504.769928 470.288727,509.536194 465.000000,513.000000 
z"/>
<path fill="#000000" opacity="1.000000" stroke="none" 
	d="
M33.913155,168.939056 
	C27.427006,168.959381 20.933109,169.182358 14.457199,168.934830 
	C9.426700,168.742569 5.049926,169.732635 1.296396,173.294525 
	C1.000000,115.748177 1.000000,58.496361 1.000000,1.000000 
	C46.020599,1.000000 91.041641,1.000000 136.531342,1.000000 
	C136.998947,15.989170 136.997894,30.978340 136.615479,46.358742 
	C120.148132,39.766083 103.733475,33.864685 85.952744,30.659296 
	C85.952744,68.670288 85.952744,105.776176 85.556580,142.941147 
	C84.590714,143.279541 84.046913,143.644760 83.447495,143.825546 
	C69.979813,147.887253 56.448662,151.749466 43.053505,156.036804 
	C34.094471,158.904282 34.180225,159.172211 33.913155,168.939056 
z"/>
<path fill="#2BA1DC" opacity="1.000000" stroke="none"
	d="
M465.468658,513.000000 
	C470.288727,509.536194 472.547241,504.769928 472.080658,498.361389 
	C471.686829,492.951874 472.006409,487.490417 472.464661,481.542297 
	C474.840057,480.945892 476.761017,480.859131 479.065796,480.755066 
	C479.065796,472.523865 479.065796,464.782806 479.182404,456.640015 
	C479.453125,453.753387 479.745880,451.268250 479.741272,448.783630 
	C479.572235,357.577789 479.369659,266.371979 479.220673,175.166092 
	C479.217285,173.087280 479.778290,171.007568 480.075989,168.928268 
	C486.542999,168.951538 493.022797,169.233902 499.472961,168.915604 
	C504.579498,168.663620 508.762543,170.175598 512.702515,173.291992 
	C513.000000,286.333344 513.000000,399.666687 513.000000,513.000000 
	C497.235291,513.000000 481.586304,513.000000 465.468658,513.000000 
z"/>
<path fill="#000000" opacity="1.000000" stroke="none" 
	d="
M239.468658,513.000000 
	C241.029144,507.361115 246.359924,506.175385 251.062836,504.552521 
	C259.104614,501.777527 269.216461,505.276001 274.996948,512.636169 
	C263.312439,513.000000 251.624878,513.000000 239.468658,513.000000 
z"/>
<path fill="#F0F5FA" opacity="1.000000" stroke="none" 
	d="
M85.952744,142.882065 
	C85.952744,105.776176 85.952744,68.670288 85.952744,30.659296 
	C103.733475,33.864685 120.148132,39.766083 136.597824,46.820232 
	C137.307297,49.327503 137.953796,51.764324 137.955292,54.201550 
	C138.007477,138.671585 138.043381,223.141724 137.880569,307.611481 
	C137.871445,312.345245 139.182449,314.146606 143.805786,315.247650 
	C172.092392,321.983978 196.263763,335.964600 215.371597,357.991882 
	C230.371552,375.283630 241.148560,395.085876 247.114914,417.229218 
	C250.973923,431.551483 253.964615,446.107697 256.998901,460.785675 
	C256.998901,459.097839 256.998932,457.410004 256.998932,455.722168 
	C256.999298,361.588867 257.030457,267.455536 256.921936,173.322357 
	C256.915558,167.779129 256.919525,162.777298 262.620544,159.761581 
	C263.647675,159.218216 264.158875,157.699509 264.926544,156.280350 
	C264.944794,155.929596 264.974731,155.984131 265.168823,155.907501 
	C265.642181,155.681915 265.853455,155.466354 265.996826,155.184174 
	C275.366821,148.586639 284.267426,141.150345 294.214417,135.583847 
	C310.007812,126.745605 326.028442,117.948563 342.832428,111.385956 
	C358.889038,105.115211 375.962128,101.275055 392.798523,97.244186 
	C401.454926,95.171722 410.556366,94.876373 419.480286,94.025368 
	C429.103668,93.107658 438.754639,92.479019 449.000214,91.676773 
	C449.000214,96.273506 449.000183,100.376053 449.000183,104.478600 
	C449.000183,117.473633 448.974854,130.468765 449.033234,143.463547 
	C449.040314,145.035675 449.499634,146.605743 449.617615,148.799957 
	C448.991821,151.305908 448.130157,153.177322 448.071808,155.073471 
	C447.887360,161.064301 448.003662,167.064392 448.003662,173.060898 
	C448.003632,248.183792 448.003998,323.306671 448.003143,398.429565 
	C448.003052,405.995178 447.989716,405.748352 440.231171,406.061096 
	C430.475342,406.454376 420.724243,407.145325 410.995300,407.987762 
	C391.574432,409.669373 372.758331,414.373749 354.325775,420.449127 
	C327.010223,429.452362 301.609711,442.385162 278.412262,459.441681 
	C274.263031,462.492493 270.790955,466.464325 266.845306,470.306519 
	C264.415802,472.260681 262.281097,474.171143 259.824646,475.476105 
	C258.509613,476.174713 256.640503,475.830383 255.010498,475.581726 
	C254.425797,473.663086 254.011185,472.036224 253.254120,470.588409 
	C243.590546,452.107513 231.304230,435.414703 217.368835,420.025635 
	C200.809265,401.738678 182.064072,385.827118 160.906204,373.076172 
	C139.585602,360.227142 116.703171,350.824738 92.419113,345.188965 
	C87.534241,344.055267 85.846764,342.417450 85.862617,337.161346 
	C86.057953,272.402100 85.968597,207.641968 85.952744,142.882065 
z"/>
<path fill="#E4ECF2" opacity="1.000000" stroke="none" 
	d="
M267.006226,470.010864 
	C270.790955,466.464325 274.263031,462.492493 278.412262,459.441681 
	C301.609711,442.385162 327.010223,429.452362 354.325775,420.449127 
	C372.758331,414.373749 391.574432,409.669373 410.995300,407.987762 
	C420.724243,407.145325 430.475342,406.454376 440.231171,406.061096 
	C447.989716,405.748352 448.003052,405.995178 448.003143,398.429565 
	C448.003998,323.306671 448.003632,248.183792 448.003662,173.060898 
	C448.003662,167.064392 447.887360,161.064301 448.071808,155.073471 
	C448.130157,153.177322 448.991821,151.305908 449.800476,149.187103 
	C459.472290,152.190231 468.853973,155.362656 478.147491,158.775146 
	C479.044678,159.104584 479.742310,160.870941 479.920898,162.061981 
	C480.213562,164.013596 480.003876,166.040512 480.041016,168.481964 
	C479.778290,171.007568 479.217285,173.087280 479.220673,175.166092 
	C479.369659,266.371979 479.572235,357.577789 479.741272,448.783630 
	C479.745880,451.268250 479.453125,453.753387 478.839783,456.487549 
	C451.866486,447.297943 424.567871,441.257751 396.463928,440.219513 
	C381.282990,439.658661 365.952972,440.626740 350.810028,442.120087 
	C327.211273,444.447357 304.741760,451.303894 283.432159,461.795746 
	C277.939972,464.499847 272.480652,467.270691 267.006226,470.010864 
z"/>
<path fill="#E4ECF2" opacity="1.000000" stroke="none" 
	d="
M265.733643,155.129425 
	C265.853455,155.466354 265.642181,155.681915 265.141968,155.891785 
	C265.104156,155.660034 265.287323,155.367355 265.733643,155.129425 
z"/>
<path fill="#E4ECF2" opacity="1.000000" stroke="none" 
	d="
M85.556580,142.941147 
	C85.968597,207.641968 86.057953,272.402100 85.862617,337.161346 
	C85.846764,342.417450 87.534241,344.055267 92.419113,345.188965 
	C116.703171,350.824738 139.585602,360.227142 160.906204,373.076172 
	C182.064072,385.827118 200.809265,401.738678 217.368835,420.025635 
	C231.304230,435.414703 243.590546,452.107513 253.254120,470.588409 
	C254.011185,472.036224 254.425797,473.663086 254.700439,475.445984 
	C237.624374,463.945312 219.253891,455.596008 199.679276,449.721436 
	C184.222076,445.082489 168.511658,442.136230 152.403641,440.771820 
	C132.603516,439.094666 112.778252,439.115051 93.349464,442.662384 
	C73.512115,446.284332 54.063663,452.036255 34.444958,456.855682 
	C34.360760,454.695251 34.203323,452.534851 34.202957,450.374420 
	C34.190250,375.397522 34.153278,300.420624 34.222374,225.443787 
	C34.237865,208.634171 34.646038,191.825073 34.831600,175.015274 
	C34.851604,173.203018 34.591331,171.387665 34.187115,169.256409 
	C34.180225,159.172211 34.094471,158.904282 43.053505,156.036804 
	C56.448662,151.749466 69.979813,147.887253 83.447495,143.825546 
	C84.046913,143.644760 84.590714,143.279541 85.556580,142.941147 
z"/>
<path fill="#C5D7E6" opacity="1.000000" stroke="none" 
	d="
M34.303078,457.321472 
	C54.063663,452.036255 73.512115,446.284332 93.349464,442.662384 
	C112.778252,439.115051 132.603516,439.094666 152.403641,440.771820 
	C168.511658,442.136230 184.222076,445.082489 199.679276,449.721436 
	C219.253891,455.596008 237.624374,463.945312 254.711380,475.820984 
	C256.640503,475.830383 258.509613,476.174713 259.824646,475.476105 
	C262.281097,474.171143 264.415802,472.260681 266.845276,470.306519 
	C272.480652,467.270691 277.939972,464.499847 283.432159,461.795746 
	C304.741760,451.303894 327.211273,444.447357 350.810028,442.120087 
	C365.952972,440.626740 381.282990,439.658661 396.463928,440.219513 
	C424.567871,441.257751 451.866486,447.297943 478.723206,456.889313 
	C479.065796,464.782806 479.065796,472.523865 479.065796,480.755066 
	C476.761017,480.859131 474.840057,480.945892 472.475098,481.082001 
	C469.867004,481.087189 467.702911,481.004364 465.538788,481.004272 
	C324.085449,480.998169 182.632141,480.998749 41.178806,480.998749 
	C39.043850,480.998749 36.908890,480.998779 34.161201,480.998779 
	C34.161201,472.969788 34.161201,465.378540 34.303078,457.321472 
z"/>
</svg>